<svg xmlns="http://www.w3.org/2000/svg" width="24" height="24" viewBox="0 0 24 24">
    <g fill="none" fill-rule="evenodd">
        <path fill="#FFF" d="M-1133-7721H233V280h-1366z"/>
        <g fill-rule="nonzero">
            <path fill="#99A3B4" d="M22.676 0H1.324C.593 0 0 .593 0 1.324v21.352C0 23.407.593 24 1.324 24h11.504v-9.281H9.703v-3.633h3.125V8.412c0-3.099 1.895-4.787 4.659-4.787.931-.002 1.862.045 2.789.14v3.24h-1.904c-1.506 0-1.8.712-1.8 1.763v2.313h3.6l-.467 3.633h-3.153V24h6.124c.731 0 1.324-.593 1.324-1.324V1.324C24 .593 23.407 0 22.676 0z"/>
            <path fill="#FFF" d="M16.552 24v-9.281h3.132l.468-3.633h-3.6V8.772c0-1.05.294-1.762 1.8-1.762h1.924V3.766a26.566 26.566 0 0 0-2.793-.141c-2.769 0-4.655 1.688-4.655 4.787v2.674H9.703v3.633h3.125V24h3.724z"/>
        </g>
    </g>
</svg>
