<svg xmlns="http://www.w3.org/2000/svg" width="24" height="24" viewBox="0 0 24 24">
    <g fill="none" fill-rule="evenodd">
        <path fill="#FFF" d="M-1172-7721H194V280h-1366z"/>
        <path fill="#99A3B4" d="M20.452 20.45h-3.56v-5.57c0-1.328-.023-3.036-1.85-3.036-1.85 0-2.133 1.448-2.133 2.941v5.666H9.353V8.997h3.41v1.566h.05c.476-.9 1.636-1.85 3.368-1.85 3.605 0 4.27 2.372 4.27 5.456v6.282zM5.339 7.434a2.066 2.066 0 1 1-.002-4.131 2.066 2.066 0 0 1 .002 4.131zM3.555 20.451h3.564V8.997H3.555v11.454zM22.224 0H1.769C.793 0 0 .775 0 1.73v20.538C0 23.224.793 24 1.77 24h20.454c.979 0 1.776-.776 1.776-1.732V1.731C24 .775 23.203 0 22.224 0z"/>
    </g>
</svg>
