<svg xmlns="http://www.w3.org/2000/svg" width="24" height="24" viewBox="0 0 24 24">
    <g fill="none" fill-rule="evenodd">
        <path fill="#FFF" d="M-1249-7721H117V280h-1366z"/>
        <path fill="#99A3B4" fill-rule="nonzero" d="M0 0h24v24H0V0zm18.942 7.07v-.236h-3.896l-2.777 6.931-3.164-6.93H5.058v.236l1.324 1.582c.13.118.205.29.183.463v6.263a.693.693 0 0 1-.194.614L4.843 17.79v.237H9.04v-.237l-1.517-1.797a.72.72 0 0 1-.205-.614V9.987l3.767 8.04h.388l3.164-8.072v6.404c0 .172 0 .204-.108.312l-1.184 1.108v.13h5.597v-.237l-1.066-1.076a.342.342 0 0 1-.118-.313V8.46s-.043-.237.054-.312l1.13-1.076z"/>
    </g>
</svg>
