<svg xmlns="http://www.w3.org/2000/svg" width="24" height="20" viewBox="0 0 24 20">
    <g fill="none" fill-rule="evenodd">
        <path fill="#FFF" d="M-1210-7724H156V277h-1366z"/>
        <path fill="#99A3B4" fill-rule="nonzero" d="M7.548 20c9.056 0 14.01-7.695 14.01-14.368 0-.219 0-.437-.015-.653.964-.715 1.796-1.6 2.457-2.614a9.637 9.637 0 0 1-2.828.794A5.047 5.047 0 0 0 23.337.366a9.72 9.72 0 0 1-3.127 1.226C18.684-.073 16.258-.48 14.294.598c-1.964 1.078-2.98 3.374-2.475 5.6C7.859 5.994 4.17 4.076 1.67.922.363 3.229 1.031 6.18 3.195 7.662A4.795 4.795 0 0 1 .96 7.032v.064c0 2.403 1.653 4.474 3.95 4.95a4.797 4.797 0 0 1-2.223.087c.645 2.057 2.494 3.466 4.6 3.506A9.725 9.725 0 0 1 0 17.732a13.688 13.688 0 0 0 7.548 2.264"/>
    </g>
</svg>
